<?xml version="1.0" encoding="UTF-8" standalone="no"?>
<!-- Created with Inkscape (http://www.inkscape.org/) -->

<svg
   xmlns:dc="http://purl.org/dc/elements/1.1/"
   xmlns:cc="http://creativecommons.org/ns#"
   xmlns:rdf="http://www.w3.org/1999/02/22-rdf-syntax-ns#"
   xmlns:svg="http://www.w3.org/2000/svg"
   xmlns="http://www.w3.org/2000/svg"
   xmlns:sodipodi="http://sodipodi.sourceforge.net/DTD/sodipodi-0.dtd"
   xmlns:inkscape="http://www.inkscape.org/namespaces/inkscape"
   width="42.060913"
   height="42.060913"
   viewBox="0 0 11.128616 11.128617"
   version="1.1"
   id="svg8"
   inkscape:version="0.92.4 (5da689c313, 2019-01-14)"
   sodipodi:docname="settings.svg">
  <defs
     id="defs2" />
  <sodipodi:namedview
     id="base"
     pagecolor="#ffffff"
     bordercolor="#666666"
     borderopacity="1.0"
     inkscape:pageopacity="0.0"
     inkscape:pageshadow="2"
     inkscape:zoom="3.959798"
     inkscape:cx="-16.815969"
     inkscape:cy="23.411118"
     inkscape:document-units="px"
     inkscape:current-layer="layer1"
     showgrid="false"
     units="px"
     fit-margin-top="0"
     fit-margin-left="0"
     fit-margin-right="0"
     fit-margin-bottom="0"
     inkscape:window-width="1366"
     inkscape:window-height="713"
     inkscape:window-x="-8"
     inkscape:window-y="-8"
     inkscape:window-maximized="1" />
  <metadata
     id="metadata5">
    <rdf:RDF>
      <cc:Work
         rdf:about="">
        <dc:format>image/svg+xml</dc:format>
        <dc:type
           rdf:resource="http://purl.org/dc/dcmitype/StillImage" />
        <dc:title></dc:title>
      </cc:Work>
    </rdf:RDF>
  </metadata>
  <g
     inkscape:label="Layer 1"
     inkscape:groupmode="layer"
     id="layer1"
     transform="translate(-79.102353,-102.44759)">
    <g
       id="g853"
       transform="matrix(1.1122391,0,0,1.1122391,-9.5029168,-12.123166)"
       style="stroke-width:0.89908719">
      <path
         id="path831"
         d="m 88.941618,107.01204 -0.668549,-0.1134 c -0.06964,-0.22484 -0.159173,-0.44174 -0.268631,-0.64868 l 0.393991,-0.55115 c 0.167137,-0.23479 0.141261,-0.55515 -0.06368,-0.75811 l -0.592932,-0.59296 c -0.111442,-0.11141 -0.258683,-0.17309 -0.415872,-0.17309 -0.123375,0 -0.240771,0.0378 -0.340254,0.10943 l -0.553138,0.39397 c -0.214894,-0.1134 -0.439737,-0.20693 -0.672544,-0.27657 l -0.111416,-0.66061 c -0.04776,-0.28454 -0.292497,-0.49147 -0.581025,-0.49147 h -0.837671 c -0.288528,0 -0.533268,0.20693 -0.581025,0.49147 l -0.115385,0.67654 c -0.222858,0.0696 -0.439737,0.16116 -0.646668,0.27257 l -0.547185,-0.39396 c -0.09948,-0.0716 -0.218889,-0.10944 -0.342238,-0.10944 -0.157189,0 -0.306414,0.0617 -0.415872,0.17312 l -0.594916,0.59293 c -0.202962,0.20296 -0.230822,0.52332 -0.06369,0.75811 l 0.39796,0.55912 c -0.109432,0.20894 -0.196983,0.42582 -0.264637,0.65066 l -0.660611,0.11142 c -0.284533,0.0478 -0.491464,0.2925 -0.491464,0.58103 v 0.83767 c 0,0.28852 0.206931,0.53326 0.491464,0.58102 l 0.676513,0.11541 c 0.06964,0.22286 0.161184,0.43974 0.2726,0.64667 l -0.39198,0.5452 c -0.167137,0.23479 -0.141261,0.55515 0.06368,0.75809 l 0.592931,0.59295 c 0.111443,0.11142 0.258683,0.17312 0.415872,0.17312 0.123349,0 0.240745,-0.0378 0.340228,-0.10943 l 0.559144,-0.39796 c 0.200951,0.10546 0.411877,0.191 0.628756,0.25865 l 0.111416,0.66858 c 0.04776,0.28453 0.292497,0.49146 0.580998,0.49146 h 0.839682 c 0.288528,0 0.533268,-0.20693 0.581025,-0.49146 l 0.113401,-0.66858 c 0.224842,-0.0696 0.441721,-0.15917 0.648652,-0.2686 l 0.55118,0.39396 c 0.09948,0.0716 0.218863,0.10944 0.342239,0.10944 0.157189,0 0.304429,-0.0617 0.415845,-0.17309 l 0.592958,-0.59296 c 0.202935,-0.20296 0.230796,-0.52332 0.06366,-0.75811 l -0.393965,-0.55314 c 0.109432,-0.20894 0.200951,-0.42582 0.268605,-0.64868 l 0.668576,-0.11142 c 0.284533,-0.0477 0.491463,-0.29249 0.491463,-0.58102 v -0.83767 c 0.004,-0.28853 -0.202962,-0.53327 -0.487495,-0.58103 z m -0.04577,1.4187 c 0,0.0259 -0.01789,0.0478 -0.04376,0.0517 l -0.835686,0.13928 c -0.105463,0.0179 -0.189045,0.0955 -0.214895,0.19698 -0.07562,0.2925 -0.191029,0.57306 -0.346233,0.8337 -0.05371,0.0915 -0.04974,0.20495 0.01193,0.2925 l 0.49149,0.69244 c 0.01392,0.0199 0.01193,0.0497 -0.006,0.0677 l -0.592931,0.59296 c -0.01394,0.0139 -0.02786,0.0159 -0.03781,0.0159 -0.01196,0 -0.02191,-0.004 -0.02985,-0.01 l -0.690457,-0.49147 c -0.08557,-0.0617 -0.200951,-0.0657 -0.292497,-0.0119 -0.260641,0.1552 -0.541205,0.27062 -0.833702,0.34621 -0.103479,0.0259 -0.181054,0.11144 -0.196982,0.21489 l -0.141261,0.83571 c -0.004,0.0259 -0.02588,0.0438 -0.05175,0.0438 h -0.837671 c -0.02588,0 -0.04776,-0.0179 -0.05175,-0.0438 l -0.139277,-0.83571 c -0.01791,-0.10544 -0.09551,-0.18902 -0.196982,-0.21489 -0.284533,-0.0736 -0.559118,-0.18704 -0.81579,-0.33428 -0.0418,-0.0239 -0.08953,-0.0358 -0.135308,-0.0358 -0.05374,0 -0.109432,0.0159 -0.155204,0.0498 l -0.69641,0.49543 c -0.0099,0.006 -0.0199,0.01 -0.02984,0.01 -0.008,0 -0.02389,-0.002 -0.03781,-0.0159 l -0.592958,-0.59295 c -0.01789,-0.0179 -0.0199,-0.0458 -0.006,-0.0677 l 0.489479,-0.68646 c 0.06168,-0.0875 0.06567,-0.20296 0.01193,-0.29448 -0.155205,-0.25868 -0.274585,-0.53925 -0.350203,-0.83172 -0.02786,-0.10149 -0.111416,-0.17909 -0.214894,-0.19701 L 80.4851,108.50243 c -0.02585,-0.004 -0.04376,-0.0259 -0.04376,-0.0517 v -0.83767 c 0,-0.0259 0.01791,-0.0478 0.04376,-0.0518 l 0.829733,-0.13927 c 0.105463,-0.0179 0.191029,-0.0955 0.216879,-0.19897 0.07363,-0.2925 0.187034,-0.57505 0.340254,-0.83571 0.05371,-0.0915 0.04776,-0.20495 -0.01392,-0.29052 l -0.495459,-0.69641 c -0.01392,-0.0199 -0.01193,-0.0497 0.006,-0.0677 l 0.592931,-0.59293 c 0.01394,-0.0139 0.02786,-0.0159 0.03781,-0.0159 0.01193,0 0.02188,0.004 0.02984,0.01 l 0.686462,0.48948 c 0.08755,0.0617 0.202961,0.0657 0.294481,0.0119 0.258683,-0.1552 0.539221,-0.27458 0.831718,-0.3502 0.101494,-0.0278 0.17907,-0.11142 0.196982,-0.2149 l 0.143272,-0.84166 c 0.004,-0.0258 0.02588,-0.0438 0.05173,-0.0438 h 0.837697 c 0.02585,0 0.04776,0.0179 0.05173,0.0438 l 0.139277,0.82973 c 0.01791,0.10546 0.09551,0.19103 0.198993,0.21688 0.300434,0.0756 0.586978,0.19301 0.853599,0.3502 0.09152,0.0537 0.204946,0.0497 0.292496,-0.0119 l 0.686462,-0.49345 c 0.0099,-0.006 0.0199,-0.01 0.02984,-0.01 0.008,0 0.02387,0.002 0.03781,0.0159 l 0.592931,0.59295 c 0.01791,0.0179 0.0199,0.0458 0.006,0.0677 l -0.491464,0.69043 c -0.0617,0.0856 -0.06567,0.20098 -0.01196,0.29249 0.155205,0.26067 0.270616,0.54124 0.346234,0.83373 0.02585,0.10346 0.111416,0.18106 0.214894,0.19699 l 0.835687,0.14126 c 0.02588,0.004 0.04379,0.0259 0.04379,0.0517 v 0.83767 z"
         inkscape:connector-curvature="0"
         style="fill:#165044;stroke-width:0.23788348" />
      <path
         id="path833"
         d="m 84.667645,105.95548 c -1.134163,0 -2.055415,0.92126 -2.055415,2.05542 0,1.13419 0.921252,2.05544 2.055415,2.05544 1.134137,0 2.055389,-0.92125 2.055389,-2.05544 0,-1.13416 -0.921252,-2.05542 -2.055389,-2.05542 z m 0,3.57362 c -0.837697,0 -1.518205,-0.6805 -1.518205,-1.5182 0,-0.83767 0.680508,-1.51818 1.518205,-1.51818 0.837671,0 1.518179,0.68051 1.518179,1.51818 0,0.8377 -0.680508,1.5182 -1.518179,1.5182 z"
         inkscape:connector-curvature="0"
         style="fill:#165044;stroke-width:0.23788348" />
    </g>
  </g>
</svg>
